<svg id="Layer_1" data-name="Layer 1" xmlns="http://www.w3.org/2000/svg" xmlns:xlink="http://www.w3.org/1999/xlink" viewBox="0 0 512 512"><defs><radialGradient id="radial-gradient" cx="68.36" cy="450.77" r="342.42" gradientTransform="translate(104.44 -960.63) scale(1.98 1.98)" gradientUnits="userSpaceOnUse"><stop offset="0" stop-color="#cce3ee"/><stop offset="0.02" stop-color="#b0d9ea"/><stop offset="0.07" stop-color="#7bc6e3"/><stop offset="0.12" stop-color="#4fb6dd"/><stop offset="0.17" stop-color="#2da9d9"/><stop offset="0.22" stop-color="#14a0d6"/><stop offset="0.26" stop-color="#059bd4"/><stop offset="0.29" stop-color="#0099d3"/><stop offset="0.65" stop-color="#006e98"/><stop offset="0.89" stop-color="#0e3e6c"/><stop offset="1" stop-color="#152757"/></radialGradient></defs><title>twitter-other</title><path d="M256.14,2.67C116.21,2.67,3,116.11,3,256S116.21,509.33,256.14,509.33C395.79,509.33,509,395.89,509,256S395.79,2.67,256.14,2.67ZM418,191.14c-2.43,1.67-3,3.34-2.85,6.12.7,55-16.76,103.84-51.92,146.15-32.6,39-74.53,62.22-124.57,70.15-53,8.21-102.88-1-148.69-29a5.23,5.23,0,0,0-1.67-1c27,1.95,53.18-2.09,78-13.36a135.6,135.6,0,0,0,31.21-18.51c-11.82-.56-22.38-3.2-32.11-8.35-16.82-8.63-28.64-22-35.87-39.53-1.67-4.32-1.67-4.32,3.13-3.9,11.54,1.11,20.23.84,27.32-1.95-6.53-2.09-12.51-3.62-17.86-6.68-25-13.92-38.23-35.08-40.39-63.75-.35-3.48.62-3.76,3.68-2.23,8.83,4.73,18.35,7,29.47,7.66A134.24,134.24,0,0,1,122,221.62c-20.71-22-25.72-57.76-11.75-84.77,1.81-3.62,2.64-3.62,5.28-.42,34.62,39.95,77.93,64.31,130.06,72.66,5.57.84,11.26,1.11,16.88,1.95,3.54.7,4-1.11,3.49-4a74.55,74.55,0,0,1,37.11-78.09c28.22-16.43,65.06-11.55,88.28,11,2.51,2.37,4.8,2.92,8,1.95A150.89,150.89,0,0,0,439,126.41a20.82,20.82,0,0,0,3.13-1.81c-5.57,17.54-16.13,30.62-31.63,41.2,14.59-1.39,27.46-5.71,40.1-10.58.43,1.95-.9,3.06-1.67,4.18A148.6,148.6,0,0,1,418,191.14Z" fill="url(#radial-gradient)"/><path d="M258.11,4.65C118.19,4.65,5,118.09,5,258S118.19,511.31,258.11,511.31C397.77,511.31,511,397.87,511,258S397.77,4.65,258.11,4.65ZM419.93,193.11c-2.43,1.67-3,3.34-2.85,6.12.7,55-16.76,103.84-51.92,146.15-32.6,39-74.53,62.22-124.57,70.15-53,8.21-102.88-1-148.69-29a5.23,5.23,0,0,0-1.67-1c27,1.95,53.18-2.09,78-13.36a135.6,135.6,0,0,0,31.21-18.51c-11.82-.56-22.38-3.2-32.11-8.35-16.82-8.63-28.64-22-35.87-39.53-1.67-4.32-1.67-4.32,3.13-3.9,11.54,1.11,20.23.84,27.32-1.95-6.53-2.09-12.51-3.62-17.86-6.68-25-13.92-38.23-35.08-40.39-63.75-.35-3.48.62-3.76,3.68-2.23,8.83,4.73,18.35,7,29.47,7.66A134.24,134.24,0,0,1,124,223.6c-20.71-22-25.72-57.76-11.75-84.77,1.81-3.62,2.64-3.62,5.28-.42,34.62,39.95,77.93,64.31,130.06,72.66,5.57.84,11.26,1.11,16.88,1.95,3.54.7,4-1.11,3.49-4A74.55,74.55,0,0,1,305.1,130.9c28.22-16.43,65.06-11.55,88.28,11,2.51,2.37,4.8,2.92,8,1.95a150.89,150.89,0,0,0,39.55-15.45,20.82,20.82,0,0,0,3.13-1.81c-5.57,17.54-16.13,30.62-31.63,41.2,14.59-1.39,27.46-5.71,40.1-10.58.43,1.95-.9,3.06-1.67,4.18A148.6,148.6,0,0,1,419.93,193.11Z" fill="none" stroke="#0f2975" stroke-width="2"/><path d="M254.16.69C114.23.69,1,114.13,1,254S114.23,507.35,254.16,507.35C393.81,507.35,507,393.91,507,254S393.81.69,254.16.69ZM416,189.16c-2.43,1.67-3,3.34-2.85,6.12.7,55-16.76,103.84-51.92,146.15-32.6,39-74.53,62.22-124.57,70.15-53,8.21-102.88-1-148.69-29a5.23,5.23,0,0,0-1.67-1c27,1.95,53.18-2.09,78-13.36a135.6,135.6,0,0,0,31.21-18.51c-11.82-.56-22.38-3.2-32.11-8.35-16.82-8.63-28.64-22-35.87-39.53-1.67-4.32-1.67-4.32,3.13-3.9,11.54,1.11,20.23.84,27.32-1.95-6.53-2.09-12.51-3.62-17.86-6.68-25-13.92-38.23-35.08-40.39-63.75-.35-3.48.62-3.76,3.68-2.23,8.83,4.73,18.35,7,29.47,7.66a134.24,134.24,0,0,1-12.79-11.41c-20.71-22-25.72-57.76-11.75-84.77,1.81-3.62,2.64-3.62,5.28-.42,34.62,39.95,77.93,64.31,130.06,72.66,5.57.84,11.26,1.11,16.88,1.95,3.54.7,4-1.11,3.49-4a74.55,74.55,0,0,1,37.11-78.09c28.22-16.43,65.06-11.55,88.28,11,2.51,2.37,4.8,2.92,8,1.95A150.89,150.89,0,0,0,437,124.43a20.82,20.82,0,0,0,3.13-1.81c-5.57,17.54-16.13,30.62-31.63,41.2,14.59-1.39,27.46-5.71,40.1-10.58.43,1.95-.9,3.06-1.67,4.18A148.6,148.6,0,0,1,416,189.16Z" fill="none" stroke="#cad8e9" stroke-width="2"/><path d="M256.14,2.67C116.21,2.67,3,116.11,3,256S116.21,509.33,256.14,509.33C395.79,509.33,509,395.89,509,256S395.79,2.67,256.14,2.67ZM418,191.14c-2.43,1.67-3,3.34-2.85,6.12.7,55-16.76,103.84-51.92,146.15-32.6,39-74.53,62.22-124.57,70.15-53,8.21-102.88-1-148.69-29a5.23,5.23,0,0,0-1.67-1c27,1.95,53.18-2.09,78-13.36a135.6,135.6,0,0,0,31.21-18.51c-11.82-.56-22.38-3.2-32.11-8.35-16.82-8.63-28.64-22-35.87-39.53-1.67-4.32-1.67-4.32,3.13-3.9,11.54,1.11,20.23.84,27.32-1.95-6.53-2.09-12.51-3.62-17.86-6.68-25-13.92-38.23-35.08-40.39-63.75-.35-3.48.62-3.76,3.68-2.23,8.83,4.73,18.35,7,29.47,7.66A134.24,134.24,0,0,1,122,221.62c-20.71-22-25.72-57.76-11.75-84.77,1.81-3.62,2.64-3.62,5.28-.42,34.62,39.95,77.93,64.31,130.06,72.66,5.57.84,11.26,1.11,16.88,1.95,3.54.7,4-1.11,3.49-4a74.55,74.55,0,0,1,37.11-78.09c28.22-16.43,65.06-11.55,88.28,11,2.51,2.37,4.8,2.92,8,1.95A150.89,150.89,0,0,0,439,126.41a20.82,20.82,0,0,0,3.13-1.81c-5.57,17.54-16.13,30.62-31.63,41.2,14.59-1.39,27.46-5.71,40.1-10.58.43,1.95-.9,3.06-1.67,4.18A148.6,148.6,0,0,1,418,191.14Z" fill="none" stroke="#8daed4" stroke-width="2"/></svg>